<svg width="50" height="50" viewBox="0 0 50 50" fill="none" xmlns="http://www.w3.org/2000/svg">
<path d="M49.9765 25.4507C48.6483 24.7568 47.1862 24.6357 45.7444 24.4762C40.801 23.9279 35.8343 23.7888 30.8659 23.7108C30.5539 23.7056 30.4002 23.6322 30.2885 23.3091C29.4567 20.9225 27.4393 19.4673 25.0168 19.476C22.6111 19.4848 20.5972 20.9406 19.7835 23.2894C19.6776 23.595 19.5507 23.7096 19.2207 23.712C15.461 23.7414 11.7059 23.8897 7.95555 24.1567C5.74373 24.3144 3.52668 24.4774 1.35561 24.9873C0.879352 25.0994 0.422461 25.2819 0 25.5287C0.116411 16.877 3.4289 9.89879 10.3461 4.78856C18.6619 -1.3549 29.8682 -1.47888 38.2731 3.79492C47.2321 9.41565 50.2949 18.7985 49.9765 25.4507Z" fill="#858585"/>
<path d="M15.531 26.4443C16.7411 26.4443 17.9518 26.4548 19.1625 26.4373C19.489 26.4327 19.6683 26.492 19.8027 26.839C20.6822 29.1516 22.7078 30.5644 25.0663 30.5539C27.444 30.5429 29.3601 29.1487 30.2582 26.761C30.3478 26.5223 30.4613 26.4286 30.7239 26.4373C33.2704 26.5275 35.8186 26.5828 38.3639 26.694C40.6555 26.7942 42.9465 26.9333 45.227 27.1923C46.5884 27.3471 47.9492 27.5002 49.2682 27.9094C49.6937 28.0416 49.8171 28.2529 49.7565 28.6953C48.4195 38.3948 40.9296 46.7676 31.4025 49.195C18.0251 52.602 4.66926 44.9032 0.895205 31.6063C0.604176 30.5819 0.415008 29.5352 0.231078 28.4869C0.172872 28.1615 0.347489 28.0666 0.576237 27.9787C1.35561 27.6772 2.17573 27.5381 2.99585 27.4199C5.0703 27.1225 7.15697 26.9443 9.25004 26.8378C11.3431 26.7313 13.4362 26.623 15.5293 26.5159L15.531 26.4443ZM46.6187 30.1342C45.9982 30.0527 45.4109 29.9596 44.8201 29.9014C40.8435 29.512 36.8523 29.3816 32.8617 29.2384C32.3961 29.2221 32.1289 29.3548 31.8548 29.7489C28.4672 34.6181 21.3888 34.5419 18.1008 29.6086C17.9174 29.3338 17.7347 29.2261 17.4064 29.2384C12.9478 29.406 8.4858 29.4945 4.05286 30.0836C3.52901 30.1534 3.44519 30.2873 3.57907 30.7722C4.50395 34.1158 6.04175 37.1403 8.3886 39.6981C13.9112 45.7146 20.7695 48.1478 28.8188 46.8748C34.3704 45.9964 38.907 43.1976 42.4267 38.8017C44.4732 36.2439 45.8533 33.355 46.6187 30.1342Z" fill="#858585"/>
<path d="M28.9323 25.0257C28.9466 25.5489 28.8555 26.0695 28.6644 26.5566C28.4734 27.0438 28.1862 27.4875 27.8201 27.8614C27.4539 28.2352 27.0163 28.5316 26.5333 28.7327C26.0502 28.9339 25.5316 29.0358 25.0084 29.0324C24.4851 29.029 23.9679 28.9202 23.4876 28.7127C23.0072 28.5052 22.5735 28.2031 22.2123 27.8245C21.8511 27.4459 21.5698 26.9984 21.3851 26.5088C21.2005 26.0192 21.1162 25.4974 21.1374 24.9745C21.1491 22.8435 22.9121 21.1094 25.0593 21.1176C27.1925 21.1251 28.937 22.8842 28.9323 25.0257Z" fill="#858585"/>
</svg>
