<svg width="199" height="50" viewBox="0 0 199 50" fill="none" xmlns="http://www.w3.org/2000/svg">
<path d="M87.4763 22.7492C87.0139 20.2788 83.7602 18.9189 80.5292 20.6641L81.3627 23.4858L82.6756 27.6617L83.2692 29.5598C85.6839 28.0186 88.1213 26.1658 87.4763 22.7435V22.7492ZM84.2682 26.5454C83.9005 25.3421 83.5256 24.1409 83.1437 22.9418L82.8069 21.7916C83.439 21.6563 84.098 21.7217 84.6906 21.9786C84.9932 22.1259 85.524 22.4546 85.6382 23.0892C85.9065 24.5057 85.427 25.5199 84.2682 26.5341V26.5454ZM136.26 18.8283C135.814 18.4203 135.288 18.1078 134.714 17.9104C134.141 17.713 133.533 17.6348 132.928 17.6808C132.324 17.7268 131.735 17.8959 131.199 18.1776C130.662 18.4594 130.191 18.8477 129.812 19.3184C129.434 19.7891 129.157 20.3321 128.999 20.9135C128.842 21.495 128.806 22.1025 128.896 22.6981C128.985 23.2937 129.197 23.8647 129.518 24.3755C129.839 24.8863 130.263 25.326 130.763 25.6672L136.574 19.1343C136.473 19.0285 136.368 18.9265 136.26 18.8283ZM130.774 23.4291C130.493 22.9201 130.376 22.3377 130.439 21.7607C130.503 21.1836 130.743 20.6398 131.128 20.2028C131.513 19.7657 132.024 19.4566 132.591 19.3172C133.159 19.1778 133.756 19.2148 134.302 19.4232L130.774 23.4291ZM173.878 24.704C173.931 24.8978 173.956 25.0981 173.952 25.2989C173.895 26.5171 172.736 27.4633 171.36 27.3954C169.985 27.35 168.906 26.3131 168.963 25.1006C169.003 23.9504 170.03 23.0495 171.297 22.9928C171.05 22.9374 170.798 22.9052 170.544 22.8965C168.232 22.8002 166.348 24.4263 166.274 26.4435C166.177 28.5966 167.924 30.3644 170.19 30.4607C172.508 30.5457 174.386 28.9195 174.471 26.7721C174.496 26.0389 174.285 25.3163 173.878 24.704ZM103.928 27.1744C103.928 28.3982 102.803 29.3841 101.427 29.3841C100.046 29.3841 98.9272 28.4039 98.9272 27.1744C98.9272 26.0298 99.9147 25.0893 101.176 24.976C100.928 24.9308 100.676 24.9081 100.423 24.908C98.1166 24.908 96.2957 26.6078 96.2957 28.6249C96.2957 30.7893 98.1223 32.4778 100.383 32.4778C102.695 32.4778 104.51 30.7893 104.51 28.6249C104.507 27.8942 104.269 27.1834 103.831 26.5964C103.888 26.7664 103.928 26.9647 103.928 27.1744ZM188.228 14.7941L187.201 18.9813L186.253 14.3351L173.592 11.5757L173.684 18.562L175.59 18.9869L175.453 20.2505L175.396 20.2108C173.033 18.9756 170.104 18.851 167.347 19.8822C166.417 20.2221 165.555 20.6924 164.779 21.2534L162.866 9.28665H154.446L154.218 10.6692H145.353L144.343 16.8168L143.601 15.9159C142.546 14.6332 141.218 13.5974 139.714 12.8824C138.209 12.1674 136.564 11.7909 134.895 11.7797L142.419 7.76249L137.179 0L127.686 10.8392L129.324 12.8223C127.902 13.3915 126.598 14.2155 125.477 15.253L117.348 8.09112L114.511 13.4909L114.619 8.30076L101.913 12.335L102.238 19.1116L104.401 18.5563L104.721 21.9843C102.249 20.8907 99.2754 20.9077 96.524 22.0636C95.7196 22.4128 94.9559 22.8479 94.2464 23.3611C94.7498 21.3677 94.5957 19.2665 93.8068 17.3664C92.8553 15.2065 91.2173 13.4154 89.1431 12.267C87.6598 11.305 85.9674 10.7069 84.2054 10.5219C79.81 9.75694 74.5241 10.5389 69.3295 12.7429C67.4908 13.5087 65.719 14.4241 64.0322 15.4797L62 16.7602L63.2273 18.817L67.0347 25.2026C67.0347 25.2026 68.1993 27.163 68.205 27.1574L70.2657 26.1545L70.5511 26.0242L80.0155 46.9886L80.9288 49L83.0409 48.3314L88.1556 46.6996L90.4047 45.9913L89.811 43.7249L87.0938 33.3617C87.8759 32.7894 88.6008 32.1775 89.2801 31.5429C89.126 32.7838 89.2059 34.036 89.5484 35.2372C90.2563 37.7472 91.9231 39.7303 94.2178 40.8239C96.701 42.0138 99.7264 42.0138 102.529 40.8352C103.939 40.246 105.195 39.3791 106.245 38.3478L106.633 42.4727L115.596 41.1639L115.584 33.1917L134.319 42.3707V33.475C137.031 33.2073 139.653 32.3648 142.008 31.0046L141.22 35.7811L151.324 37.3619L151.878 33.7527L154.509 38.5915L156.125 35.5035L156.718 40.5746L168.164 42.569L167.559 38.7501C169.602 38.9671 171.664 38.5766 173.484 37.6282L173.027 41.6965L180.653 42.7674L180.71 45.8667L188.645 48.3484L199 17.3891L188.228 14.7941ZM143.481 19.3836L144.006 18.834L143.367 22.7435L141.717 21.259L143.481 19.3836ZM136.762 3.44496L139.542 7.19022L131.607 11.0941L131.054 10.2669L136.762 3.44496ZM84.234 32.2908L87.4021 44.3482L82.276 45.9743L71.767 22.6755C71.1961 22.9758 70.1458 23.4688 69.1697 23.9391L65.3679 17.5591C66.8863 16.6015 68.5418 15.7516 70.3056 15.0094C75.2605 12.9186 79.9927 12.2897 83.7773 12.9583C85.1073 13.1112 86.523 13.4965 87.7731 14.3181C89.4742 15.27 90.77 16.6185 91.5235 18.3467C93.3502 22.5395 90.2905 28.5852 84.234 32.2908ZM107.787 30.1491C107.729 31.9509 107.062 33.7413 105.954 35.2655C104.87 36.7729 103.391 37.9581 101.679 38.6935C97.2318 40.5633 92.7907 38.6935 91.6091 34.5006C90.4503 30.455 93.1275 25.6332 97.4316 23.7917C100.189 22.6472 102.946 22.9135 104.921 24.245C106.137 25.0723 107.073 26.3075 107.507 27.8543C107.719 28.6022 107.813 29.3782 107.787 30.1547V30.1491ZM131.967 38.6708L113.392 29.4408L113.426 39.1128L108.614 39.7643L108.277 35.7811C109.762 33.2541 110.304 30.2737 109.533 27.5427C109.126 26.0819 108.338 24.7532 107.25 23.6898L106.559 15.5703L104.407 16.1256L104.31 14.0745L112.028 11.7854L112.502 19.6952L118.193 11.7627L123.753 17.0152L115.978 25.1516L123.285 28.0243C124.095 29.5541 125.34 30.8573 126.904 31.8205C128.411 32.7441 130.146 33.2937 131.978 33.4694V38.6708H131.967ZM122.32 25.2989L119.728 24.313L122.143 21.9899C122.035 23.0552 122.086 24.1714 122.314 25.2989H122.32ZM142.539 27.7183C140.758 29.1858 138.714 30.1377 136.037 30.778C135.47 30.9137 134.894 31.0102 134.313 31.067C130.049 31.4806 126.47 29.5371 125.111 26.3868C124.943 26.005 124.812 25.6085 124.717 25.2026C124.09 22.5509 124.626 20.1768 125.945 18.3183C126.331 17.774 126.781 17.2775 127.286 16.8395C128.613 15.6921 130.206 14.8883 131.921 14.4994C135.986 13.5305 139.565 14.7601 141.757 17.4288L134.022 25.6106C134.684 25.6651 135.351 25.6018 135.991 25.4236C137.835 24.976 138.868 24.0071 139.776 22.9532L142.87 25.7069L143.806 26.5568C143.404 26.9647 142.981 27.3524 142.539 27.7183ZM158.962 38.6368L157.283 27.5653L154.897 33.6733L151.33 26.0355H151.29L149.885 34.8745L143.943 33.8547L144.777 28.9252C145.001 28.7142 145.222 28.4988 145.439 28.2793L147.368 26.3075L145.49 24.6417L147.488 12.8959H153.482L154.977 21.0324L156.656 11.6097H160.948L162.729 23.0892C160.469 25.6445 159.361 29.0952 160.126 32.2398C160.421 33.5361 161.023 34.744 161.882 35.7637C162.74 36.7834 163.831 37.5857 165.064 38.1042L165.292 39.5944L158.962 38.6368ZM173.775 35.0275C173.11 35.4967 172.387 35.8776 171.623 36.1607C170.223 36.7173 168.693 36.8686 167.21 36.597C166.29 36.4229 165.419 36.0558 164.653 35.5205C163.411 34.6178 162.539 33.2997 162.198 31.8092C161.742 29.9054 162.158 27.8656 163.192 26.0752C163.711 25.2026 164.373 24.3867 165.155 23.6784C166.023 22.9022 167.039 22.2619 168.164 21.837C170.784 20.8624 173.37 21.2024 175.185 22.4942C176.399 23.3602 177.256 24.6349 177.594 26.0808C178.153 28.3813 177.491 30.829 176.03 32.8064C175.402 33.6614 174.641 34.4113 173.775 35.0275ZM187.149 45.4587L182.754 44.1612L182.377 28.0809L180.163 40.4896L175.368 39.7247L175.721 36.1551C178.844 33.526 180.505 29.3841 179.597 25.6389C179.218 24.018 178.355 22.5486 177.12 21.4233L177.525 17.2135L175.716 16.7318L175.83 14.4881L184.096 16.1312L186.875 29.2085L189.724 17.4854L196.003 18.8679L187.149 45.4587Z" fill="white"/>
<path d="M49.9886 25.4507C48.6603 24.7568 47.1982 24.6357 45.7564 24.4762C40.813 23.9279 35.8463 23.7888 30.8779 23.7108C30.5659 23.7056 30.4123 23.6322 30.3005 23.3091C29.4687 20.9225 27.4513 19.4673 25.0288 19.476C22.6232 19.4848 20.6093 20.9406 19.7955 23.2894C19.6896 23.595 19.5627 23.7096 19.2327 23.712C15.473 23.7414 11.718 23.8897 7.96757 24.1567C5.75576 24.3144 3.5387 24.4774 1.36763 24.9873C0.891376 25.0994 0.434485 25.2819 0.0120239 25.5287C0.128435 16.877 3.44092 9.89879 10.3581 4.78856C18.6739 -1.3549 29.8803 -1.47888 38.2851 3.79492C47.2442 9.41565 50.3069 18.7985 49.9886 25.4507Z" fill="white"/>
<path d="M15.543 26.4443C16.7531 26.4443 17.9638 26.4548 19.1745 26.4373C19.501 26.4327 19.6803 26.492 19.8147 26.839C20.6942 29.1516 22.7198 30.5644 25.0783 30.5539C27.456 30.5429 29.3721 29.1487 30.2702 26.761C30.3599 26.5223 30.4734 26.4286 30.7359 26.4373C33.2824 26.5275 35.8306 26.5828 38.376 26.694C40.6675 26.7942 42.9585 26.9333 45.239 27.1923C46.6004 27.3471 47.9613 27.5002 49.2802 27.9094C49.7057 28.0416 49.8291 28.2529 49.7685 28.6953C48.4316 38.3948 40.9417 46.7676 31.4146 49.195C18.0372 52.602 4.68128 44.9032 0.907229 31.6063C0.6162 30.5819 0.427032 29.5352 0.243102 28.4869C0.184896 28.1615 0.359513 28.0666 0.588261 27.9787C1.36763 27.6772 2.18775 27.5381 3.00787 27.4199C5.08232 27.1225 7.16899 26.9443 9.26207 26.8378C11.3551 26.7313 13.4482 26.623 15.5413 26.5159L15.543 26.4443ZM46.6307 30.1342C46.0102 30.0527 45.4229 29.9596 44.8321 29.9014C40.8555 29.512 36.8644 29.3816 32.8738 29.2384C32.4081 29.2221 32.141 29.3548 31.8668 29.7489C28.4792 34.6181 21.4009 34.5419 18.1128 29.6086C17.9295 29.3338 17.7467 29.2261 17.4184 29.2384C12.9599 29.406 8.49783 29.4945 4.06489 30.0836C3.54103 30.1534 3.45722 30.2873 3.59109 30.7722C4.51598 34.1158 6.05377 37.1403 8.40062 39.6981C13.9232 45.7146 20.7815 48.1478 28.8308 46.8748C34.3825 45.9964 38.919 43.1976 42.4387 38.8017C44.4852 36.2439 45.8653 33.355 46.6307 30.1342Z" fill="white"/>
<path d="M28.9443 25.0257C28.9586 25.5489 28.8675 26.0695 28.6765 26.5566C28.4854 27.0438 28.1982 27.4875 27.8321 27.8614C27.4659 28.2352 27.0283 28.5316 26.5453 28.7327C26.0622 28.9339 25.5436 29.0358 25.0204 29.0324C24.4971 29.029 23.9799 28.9202 23.4996 28.7127C23.0192 28.5052 22.5855 28.2031 22.2243 27.8245C21.8631 27.4459 21.5818 26.9984 21.3972 26.5088C21.2125 26.0192 21.1283 25.4974 21.1494 24.9745C21.1611 22.8435 22.9241 21.1094 25.0713 21.1176C27.2046 21.1251 28.949 22.8842 28.9443 25.0257Z" fill="white"/>
</svg>
