<svg width="314" height="50" viewBox="0 0 314 50" fill="none" xmlns="http://www.w3.org/2000/svg">
<path d="M87.4763 22.7492C87.0139 20.2788 83.7602 18.9189 80.5292 20.6641L81.3627 23.4858L82.6756 27.6617L83.2692 29.5598C85.6839 28.0186 88.1213 26.1658 87.4763 22.7435V22.7492ZM84.2682 26.5454C83.9005 25.3421 83.5256 24.1409 83.1437 22.9418L82.8069 21.7916C83.439 21.6563 84.098 21.7217 84.6906 21.9786C84.9932 22.1259 85.524 22.4546 85.6382 23.0892C85.9065 24.5057 85.427 25.5199 84.2682 26.5341V26.5454ZM136.26 18.8283C135.814 18.4203 135.288 18.1078 134.714 17.9104C134.141 17.713 133.533 17.6348 132.928 17.6808C132.324 17.7268 131.735 17.8959 131.199 18.1776C130.662 18.4594 130.191 18.8477 129.812 19.3184C129.434 19.7891 129.157 20.3321 128.999 20.9135C128.842 21.495 128.806 22.1025 128.896 22.6981C128.985 23.2937 129.197 23.8647 129.518 24.3755C129.839 24.8863 130.263 25.326 130.763 25.6672L136.574 19.1343C136.473 19.0285 136.368 18.9265 136.26 18.8283ZM130.774 23.4291C130.493 22.9201 130.376 22.3377 130.439 21.7607C130.503 21.1836 130.743 20.6398 131.128 20.2028C131.513 19.7657 132.024 19.4566 132.591 19.3172C133.159 19.1778 133.756 19.2148 134.302 19.4232L130.774 23.4291ZM173.878 24.704C173.931 24.8978 173.956 25.0981 173.952 25.2989C173.895 26.5171 172.736 27.4633 171.36 27.3954C169.985 27.35 168.906 26.3131 168.963 25.1006C169.003 23.9504 170.03 23.0495 171.297 22.9928C171.05 22.9374 170.798 22.9052 170.544 22.8965C168.232 22.8002 166.348 24.4263 166.274 26.4435C166.177 28.5966 167.924 30.3644 170.19 30.4607C172.508 30.5457 174.386 28.9195 174.471 26.7721C174.496 26.0389 174.285 25.3163 173.878 24.704ZM103.928 27.1744C103.928 28.3982 102.803 29.3841 101.427 29.3841C100.046 29.3841 98.9272 28.4039 98.9272 27.1744C98.9272 26.0298 99.9147 25.0893 101.176 24.976C100.928 24.9308 100.676 24.9081 100.423 24.908C98.1166 24.908 96.2957 26.6078 96.2957 28.6249C96.2957 30.7893 98.1223 32.4778 100.383 32.4778C102.695 32.4778 104.51 30.7893 104.51 28.6249C104.507 27.8942 104.269 27.1834 103.831 26.5964C103.888 26.7664 103.928 26.9647 103.928 27.1744ZM188.228 14.7941L187.201 18.9813L186.253 14.3351L173.592 11.5757L173.684 18.562L175.59 18.9869L175.453 20.2505L175.396 20.2108C173.033 18.9756 170.104 18.851 167.347 19.8822C166.417 20.2221 165.555 20.6924 164.779 21.2534L162.866 9.28665H154.446L154.218 10.6692H145.353L144.343 16.8168L143.601 15.9159C142.546 14.6332 141.218 13.5974 139.714 12.8824C138.209 12.1674 136.564 11.7909 134.895 11.7797L142.419 7.76249L137.179 0L127.686 10.8392L129.324 12.8223C127.902 13.3915 126.598 14.2155 125.477 15.253L117.348 8.09112L114.511 13.4909L114.619 8.30076L101.913 12.335L102.238 19.1116L104.401 18.5563L104.721 21.9843C102.249 20.8907 99.2754 20.9077 96.524 22.0636C95.7196 22.4128 94.9559 22.8479 94.2464 23.3611C94.7498 21.3677 94.5957 19.2665 93.8068 17.3664C92.8553 15.2065 91.2173 13.4154 89.1431 12.267C87.6598 11.305 85.9674 10.7069 84.2054 10.5219C79.81 9.75694 74.5241 10.5389 69.3295 12.7429C67.4908 13.5087 65.719 14.4241 64.0322 15.4797L62 16.7602L63.2273 18.817L67.0347 25.2026C67.0347 25.2026 68.1993 27.163 68.205 27.1574L70.2657 26.1545L70.5511 26.0242L80.0155 46.9886L80.9288 49L83.0409 48.3314L88.1556 46.6996L90.4047 45.9913L89.811 43.7249L87.0938 33.3617C87.8759 32.7894 88.6008 32.1775 89.2801 31.5429C89.126 32.7838 89.2059 34.036 89.5484 35.2372C90.2563 37.7472 91.9231 39.7303 94.2178 40.8239C96.701 42.0138 99.7264 42.0138 102.529 40.8352C103.939 40.246 105.195 39.3791 106.245 38.3478L106.633 42.4727L115.596 41.1639L115.584 33.1917L134.319 42.3707V33.475C137.031 33.2073 139.653 32.3648 142.008 31.0046L141.22 35.7811L151.324 37.3619L151.878 33.7527L154.509 38.5915L156.125 35.5035L156.718 40.5746L168.164 42.569L167.559 38.7501C169.602 38.9671 171.664 38.5766 173.484 37.6282L173.027 41.6965L180.653 42.7674L180.71 45.8667L188.645 48.3484L199 17.3891L188.228 14.7941ZM143.481 19.3836L144.006 18.834L143.367 22.7435L141.717 21.259L143.481 19.3836ZM136.762 3.44496L139.542 7.19022L131.607 11.0941L131.054 10.2669L136.762 3.44496ZM84.234 32.2908L87.4021 44.3482L82.276 45.9743L71.767 22.6755C71.1961 22.9758 70.1458 23.4688 69.1697 23.9391L65.3679 17.5591C66.8863 16.6015 68.5417 15.7516 70.3056 15.0094C75.2605 12.9186 79.9927 12.2897 83.7773 12.9583C85.1073 13.1112 86.523 13.4965 87.7731 14.3181C89.4742 15.27 90.77 16.6185 91.5235 18.3467C93.3502 22.5395 90.2905 28.5852 84.234 32.2908ZM107.787 30.1491C107.729 31.9509 107.062 33.7413 105.954 35.2655C104.87 36.7729 103.391 37.9581 101.679 38.6935C97.2318 40.5633 92.7907 38.6935 91.6091 34.5006C90.4503 30.455 93.1275 25.6332 97.4316 23.7917C100.189 22.6472 102.946 22.9135 104.921 24.245C106.137 25.0723 107.073 26.3075 107.507 27.8543C107.719 28.6022 107.813 29.3782 107.787 30.1547V30.1491ZM131.967 38.6708L113.392 29.4408L113.426 39.1128L108.614 39.7643L108.277 35.7811C109.762 33.2541 110.304 30.2737 109.533 27.5427C109.126 26.0819 108.338 24.7532 107.25 23.6898L106.559 15.5703L104.407 16.1256L104.31 14.0745L112.028 11.7854L112.502 19.6952L118.193 11.7627L123.753 17.0152L115.978 25.1516L123.285 28.0243C124.095 29.5541 125.34 30.8573 126.904 31.8205C128.411 32.7441 130.146 33.2937 131.978 33.4694V38.6708H131.967ZM122.32 25.2989L119.728 24.313L122.143 21.9899C122.035 23.0552 122.086 24.1714 122.314 25.2989H122.32ZM142.539 27.7183C140.758 29.1858 138.714 30.1377 136.037 30.778C135.47 30.9137 134.894 31.0102 134.313 31.067C130.049 31.4806 126.47 29.5371 125.111 26.3868C124.943 26.005 124.812 25.6085 124.717 25.2026C124.09 22.5509 124.626 20.1768 125.945 18.3183C126.331 17.774 126.781 17.2775 127.286 16.8395C128.613 15.6921 130.206 14.8883 131.921 14.4994C135.986 13.5305 139.565 14.7601 141.757 17.4288L134.022 25.6105C134.684 25.6651 135.351 25.6018 135.991 25.4236C137.835 24.976 138.868 24.0071 139.776 22.9532L142.87 25.7069L143.806 26.5568C143.404 26.9647 142.981 27.3524 142.539 27.7183ZM158.962 38.6368L157.283 27.5653L154.897 33.6733L151.33 26.0355H151.29L149.885 34.8745L143.943 33.8547L144.777 28.9252C145.001 28.7142 145.222 28.4988 145.439 28.2793L147.368 26.3075L145.49 24.6417L147.488 12.8959H153.482L154.977 21.0324L156.656 11.6097H160.948L162.729 23.0892C160.469 25.6446 159.361 29.0952 160.126 32.2398C160.421 33.5361 161.023 34.744 161.882 35.7637C162.74 36.7835 163.831 37.5857 165.064 38.1042L165.292 39.5944L158.962 38.6368ZM173.775 35.0275C173.11 35.4967 172.387 35.8777 171.623 36.1607C170.223 36.7173 168.693 36.8686 167.21 36.597C166.29 36.4229 165.419 36.0558 164.653 35.5205C163.411 34.6178 162.539 33.2997 162.198 31.8092C161.742 29.9054 162.158 27.8656 163.192 26.0752C163.711 25.2026 164.373 24.3867 165.155 23.6784C166.023 22.9022 167.039 22.2619 168.164 21.837C170.784 20.8624 173.37 21.2024 175.185 22.4942C176.399 23.3602 177.256 24.6349 177.594 26.0808C178.153 28.3813 177.491 30.829 176.03 32.8064C175.402 33.6614 174.641 34.4113 173.775 35.0275ZM187.149 45.4587L182.754 44.1612L182.377 28.0809L180.162 40.4896L175.368 39.7247L175.721 36.1551C178.844 33.526 180.505 29.3841 179.597 25.6389C179.218 24.018 178.355 22.5486 177.12 21.4233L177.525 17.2135L175.716 16.7318L175.83 14.4881L184.096 16.1312L186.875 29.2085L189.724 17.4854L196.003 18.8679L187.149 45.4587Z" fill="white"/>
<path d="M49.9886 25.4507C48.6603 24.7568 47.1982 24.6357 45.7564 24.4762C40.813 23.9279 35.8463 23.7888 30.8779 23.7108C30.5659 23.7055 30.4123 23.6322 30.3005 23.3091C29.4687 20.9225 27.4513 19.4673 25.0288 19.476C22.6232 19.4848 20.6093 20.9406 19.7955 23.2894C19.6896 23.595 19.5627 23.7096 19.2327 23.712C15.473 23.7414 11.718 23.8897 7.96757 24.1567C5.75576 24.3144 3.5387 24.4774 1.36763 24.9873C0.891376 25.0994 0.434485 25.2819 0.0120239 25.5287C0.128435 16.877 3.44092 9.89879 10.3581 4.78856C18.6739 -1.3549 29.8803 -1.47888 38.2851 3.79492C47.2442 9.41565 50.3069 18.7985 49.9886 25.4507Z" fill="white"/>
<path d="M15.543 26.4443C16.7531 26.4443 17.9638 26.4548 19.1745 26.4373C19.501 26.4327 19.6803 26.492 19.8147 26.839C20.6942 29.1516 22.7198 30.5644 25.0783 30.5539C27.456 30.5429 29.3721 29.1487 30.2702 26.761C30.3599 26.5223 30.4734 26.4286 30.7359 26.4373C33.2824 26.5275 35.8306 26.5828 38.3759 26.694C40.6675 26.7942 42.9585 26.9333 45.239 27.1923C46.6004 27.3471 47.9613 27.5002 49.2802 27.9094C49.7057 28.0416 49.8291 28.2529 49.7685 28.6953C48.4316 38.3948 40.9417 46.7676 31.4146 49.195C18.0372 52.602 4.68128 44.9032 0.907229 31.6063C0.6162 30.5819 0.427032 29.5352 0.243102 28.4869C0.184896 28.1615 0.359513 28.0666 0.588261 27.9787C1.36763 27.6772 2.18775 27.5381 3.00787 27.4199C5.08232 27.1225 7.16899 26.9443 9.26207 26.8378C11.3551 26.7313 13.4482 26.623 15.5413 26.5159L15.543 26.4443ZM46.6307 30.1342C46.0102 30.0527 45.4229 29.9596 44.8321 29.9014C40.8555 29.512 36.8644 29.3816 32.8738 29.2384C32.4081 29.2221 32.141 29.3548 31.8668 29.7489C28.4792 34.6181 21.4009 34.5419 18.1128 29.6086C17.9295 29.3338 17.7467 29.2261 17.4184 29.2384C12.9599 29.406 8.49783 29.4945 4.06489 30.0836C3.54103 30.1534 3.45722 30.2873 3.59109 30.7722C4.51598 34.1158 6.05377 37.1403 8.40062 39.6981C13.9232 45.7146 20.7815 48.1478 28.8308 46.8748C34.3825 45.9964 38.919 43.1976 42.4387 38.8017C44.4852 36.2439 45.8653 33.355 46.6307 30.1342Z" fill="white"/>
<path d="M28.9443 25.0257C28.9586 25.5489 28.8675 26.0695 28.6765 26.5566C28.4854 27.0438 28.1982 27.4875 27.8321 27.8614C27.4659 28.2352 27.0283 28.5316 26.5453 28.7327C26.0622 28.9339 25.5436 29.0358 25.0204 29.0324C24.4971 29.029 23.9799 28.9202 23.4996 28.7127C23.0192 28.5052 22.5855 28.2031 22.2243 27.8245C21.8631 27.4459 21.5818 26.9984 21.3972 26.5088C21.2125 26.0192 21.1283 25.4974 21.1494 24.9745C21.1611 22.8435 22.9241 21.1094 25.0713 21.1176C27.2046 21.1251 28.949 22.8842 28.9443 25.0257Z" fill="white"/>
<path d="M218.604 25.6719C218.564 25.2997 218.396 25.0099 218.101 24.8026C217.808 24.5952 217.428 24.4915 216.959 24.4915C216.629 24.4915 216.347 24.5412 216.111 24.6406C215.875 24.7401 215.695 24.875 215.57 25.0455C215.445 25.2159 215.381 25.4105 215.378 25.6293C215.378 25.8111 215.419 25.9687 215.501 26.1023C215.587 26.2358 215.702 26.3494 215.847 26.4432C215.991 26.5341 216.152 26.6108 216.328 26.6733C216.504 26.7358 216.682 26.7884 216.861 26.831L217.679 27.0355C218.009 27.1122 218.325 27.2159 218.629 27.3466C218.936 27.4773 219.21 27.642 219.452 27.8409C219.696 28.0398 219.889 28.2798 220.031 28.5611C220.173 28.8423 220.244 29.1719 220.244 29.5497C220.244 30.0611 220.114 30.5114 219.852 30.9006C219.591 31.2869 219.213 31.5895 218.719 31.8082C218.227 32.0241 217.632 32.1321 216.933 32.1321C216.254 32.1321 215.665 32.027 215.165 31.8168C214.668 31.6065 214.278 31.2997 213.997 30.8963C213.719 30.4929 213.568 30.0014 213.545 29.4219H215.101C215.124 29.7259 215.217 29.9787 215.382 30.1804C215.547 30.3821 215.761 30.5327 216.026 30.6321C216.293 30.7315 216.591 30.7812 216.92 30.7812C217.264 30.7812 217.565 30.7301 217.824 30.6278C218.085 30.5227 218.29 30.3778 218.438 30.1932C218.585 30.0057 218.661 29.7869 218.663 29.5369C218.661 29.3097 218.594 29.1222 218.463 28.9744C218.332 28.8239 218.149 28.6989 217.913 28.5994C217.68 28.4972 217.408 28.4062 217.095 28.3267L216.102 28.071C215.384 27.8864 214.815 27.6065 214.398 27.2315C213.983 26.8537 213.776 26.3523 213.776 25.7273C213.776 25.2131 213.915 24.7628 214.193 24.3764C214.474 23.9901 214.857 23.6903 215.339 23.4773C215.822 23.2614 216.369 23.1534 216.98 23.1534C217.599 23.1534 218.142 23.2614 218.608 23.4773C219.077 23.6903 219.445 23.9872 219.712 24.3679C219.979 24.7457 220.116 25.1804 220.125 25.6719H218.604ZM221.586 34.4545V25.4545H223.103V26.5369H223.192C223.272 26.3778 223.384 26.2088 223.529 26.0298C223.674 25.848 223.87 25.6932 224.117 25.5653C224.364 25.4347 224.679 25.3693 225.063 25.3693C225.569 25.3693 226.025 25.4986 226.431 25.7571C226.84 26.0128 227.164 26.392 227.402 26.8949C227.644 27.3949 227.765 28.0085 227.765 28.7358C227.765 29.4545 227.647 30.0653 227.411 30.5682C227.175 31.071 226.854 31.4545 226.448 31.7188C226.042 31.983 225.581 32.1151 225.067 32.1151C224.692 32.1151 224.381 32.0526 224.134 31.9276C223.887 31.8026 223.688 31.652 223.537 31.4759C223.39 31.2969 223.275 31.1278 223.192 30.9688H223.128V34.4545H221.586ZM223.098 28.7273C223.098 29.1506 223.158 29.5213 223.277 29.8395C223.4 30.1577 223.574 30.4062 223.801 30.5852C224.032 30.7614 224.31 30.8494 224.637 30.8494C224.978 30.8494 225.263 30.7585 225.493 30.5767C225.723 30.392 225.897 30.1406 226.013 29.8224C226.132 29.5014 226.192 29.1364 226.192 28.7273C226.192 28.321 226.134 27.9602 226.017 27.6449C225.901 27.3295 225.728 27.0824 225.498 26.9034C225.267 26.7244 224.98 26.6349 224.637 26.6349C224.307 26.6349 224.027 26.7216 223.797 26.8949C223.567 27.0682 223.392 27.3111 223.273 27.6236C223.157 27.9361 223.098 28.304 223.098 28.7273ZM231.983 32.1278C231.327 32.1278 230.76 31.9915 230.283 31.7188C229.809 31.4432 229.444 31.054 229.188 30.5511C228.932 30.0455 228.804 29.4503 228.804 28.7656C228.804 28.0923 228.932 27.5014 229.188 26.9929C229.446 26.4815 229.807 26.0838 230.27 25.7997C230.733 25.5128 231.277 25.3693 231.902 25.3693C232.306 25.3693 232.686 25.4347 233.044 25.5653C233.405 25.6932 233.723 25.892 233.999 26.1619C234.277 26.4318 234.496 26.7756 234.655 27.1932C234.814 27.608 234.894 28.1023 234.894 28.6761V29.1491H229.529V28.1094H233.415C233.412 27.8139 233.348 27.5511 233.223 27.321C233.098 27.0881 232.924 26.9048 232.699 26.7713C232.478 26.6378 232.219 26.571 231.924 26.571C231.608 26.571 231.331 26.6477 231.093 26.8011C230.854 26.9517 230.668 27.1506 230.534 27.3977C230.404 27.642 230.337 27.9105 230.334 28.2031V29.1108C230.334 29.4915 230.404 29.8182 230.543 30.0909C230.682 30.3608 230.877 30.5682 231.127 30.7131C231.377 30.8551 231.669 30.9261 232.005 30.9261C232.229 30.9261 232.432 30.8949 232.614 30.8324C232.796 30.767 232.953 30.6719 233.087 30.5469C233.221 30.4219 233.321 30.267 233.39 30.0824L234.83 30.2443C234.739 30.625 234.566 30.9574 234.31 31.2415C234.057 31.5227 233.733 31.7415 233.338 31.8977C232.944 32.0511 232.492 32.1278 231.983 32.1278ZM239.054 32.1278C238.401 32.1278 237.839 31.9844 237.371 31.6974C236.905 31.4105 236.545 31.0142 236.293 30.5085C236.043 30 235.918 29.4148 235.918 28.7528C235.918 28.0881 236.045 27.5014 236.301 26.9929C236.557 26.4815 236.918 26.0838 237.384 25.7997C237.852 25.5128 238.406 25.3693 239.045 25.3693C239.577 25.3693 240.047 25.4673 240.456 25.6634C240.868 25.8565 241.196 26.1307 241.44 26.4858C241.685 26.8381 241.824 27.25 241.858 27.7216H240.384C240.324 27.4062 240.182 27.1435 239.957 26.9332C239.736 26.7202 239.439 26.6136 239.067 26.6136C238.751 26.6136 238.474 26.6989 238.236 26.8693C237.997 27.0369 237.811 27.2784 237.678 27.5938C237.547 27.9091 237.482 28.2869 237.482 28.7273C237.482 29.1733 237.547 29.5568 237.678 29.8778C237.808 30.196 237.991 30.4418 238.227 30.6151C238.466 30.7855 238.746 30.8707 239.067 30.8707C239.294 30.8707 239.497 30.8281 239.676 30.7429C239.858 30.6548 240.01 30.5284 240.132 30.3636C240.254 30.1989 240.338 29.9986 240.384 29.7628H241.858C241.821 30.2259 241.685 30.6364 241.449 30.9943C241.213 31.3494 240.892 31.6278 240.486 31.8295C240.08 32.0284 239.602 32.1278 239.054 32.1278ZM243.125 32V25.4545H244.667V32H243.125ZM243.9 24.5256C243.656 24.5256 243.446 24.4446 243.27 24.2827C243.093 24.1179 243.005 23.9205 243.005 23.6903C243.005 23.4574 243.093 23.2599 243.27 23.098C243.446 22.9332 243.656 22.8509 243.9 22.8509C244.147 22.8509 244.358 22.9332 244.531 23.098C244.707 23.2599 244.795 23.4574 244.795 23.6903C244.795 23.9205 244.707 24.1179 244.531 24.2827C244.358 24.4446 244.147 24.5256 243.9 24.5256ZM249.151 32.1278C248.495 32.1278 247.928 31.9915 247.451 31.7188C246.977 31.4432 246.612 31.054 246.356 30.5511C246.1 30.0455 245.972 29.4503 245.972 28.7656C245.972 28.0923 246.1 27.5014 246.356 26.9929C246.614 26.4815 246.975 26.0838 247.438 25.7997C247.901 25.5128 248.445 25.3693 249.07 25.3693C249.474 25.3693 249.854 25.4347 250.212 25.5653C250.573 25.6932 250.891 25.892 251.167 26.1619C251.445 26.4318 251.664 26.7756 251.823 27.1932C251.982 27.608 252.062 28.1023 252.062 28.6761V29.1491H246.697V28.1094H250.583C250.58 27.8139 250.516 27.5511 250.391 27.321C250.266 27.0881 250.092 26.9048 249.867 26.7713C249.646 26.6378 249.387 26.571 249.092 26.571C248.776 26.571 248.499 26.6477 248.261 26.8011C248.022 26.9517 247.836 27.1506 247.702 27.3977C247.572 27.642 247.505 27.9105 247.502 28.2031V29.1108C247.502 29.4915 247.572 29.8182 247.711 30.0909C247.85 30.3608 248.045 30.5682 248.295 30.7131C248.545 30.8551 248.837 30.9261 249.173 30.9261C249.397 30.9261 249.6 30.8949 249.782 30.8324C249.964 30.767 250.121 30.6719 250.255 30.5469C250.388 30.4219 250.489 30.267 250.558 30.0824L251.998 30.2443C251.907 30.625 251.734 30.9574 251.478 31.2415C251.225 31.5227 250.901 31.7415 250.506 31.8977C250.112 32.0511 249.66 32.1278 249.151 32.1278ZM258.54 27.1847L257.134 27.3381C257.094 27.196 257.025 27.0625 256.925 26.9375C256.828 26.8125 256.698 26.7116 256.533 26.6349C256.368 26.5582 256.167 26.5199 255.928 26.5199C255.607 26.5199 255.337 26.5895 255.118 26.7287C254.902 26.8679 254.796 27.0483 254.799 27.2699C254.796 27.4602 254.865 27.6151 255.007 27.7344C255.152 27.8537 255.391 27.9517 255.723 28.0284L256.84 28.267C257.459 28.4006 257.919 28.6122 258.221 28.902C258.525 29.1918 258.678 29.571 258.681 30.0398C258.678 30.4517 258.557 30.8153 258.319 31.1307C258.083 31.4432 257.755 31.6875 257.334 31.8636C256.914 32.0398 256.431 32.1278 255.885 32.1278C255.084 32.1278 254.439 31.9602 253.951 31.625C253.462 31.2869 253.171 30.8168 253.077 30.2145L254.581 30.0696C254.65 30.3651 254.794 30.5881 255.016 30.7386C255.238 30.8892 255.526 30.9645 255.881 30.9645C256.248 30.9645 256.542 30.8892 256.763 30.7386C256.988 30.5881 257.1 30.402 257.1 30.1804C257.1 29.9929 257.027 29.8381 256.882 29.7159C256.74 29.5937 256.519 29.5 256.218 29.4347L255.101 29.2003C254.473 29.0696 254.009 28.8494 253.708 28.5398C253.407 28.2273 253.257 27.8324 253.26 27.3551C253.257 26.9517 253.367 26.6023 253.588 26.3068C253.813 26.0085 254.124 25.7784 254.522 25.6165C254.922 25.4517 255.384 25.3693 255.907 25.3693C256.674 25.3693 257.277 25.5327 257.718 25.8594C258.161 26.1861 258.435 26.6278 258.54 27.1847ZM268.844 26.0597C268.773 25.8295 268.675 25.6236 268.55 25.4418C268.428 25.2571 268.28 25.0994 268.107 24.9688C267.936 24.8381 267.74 24.7401 267.519 24.6747C267.297 24.6065 267.056 24.5724 266.794 24.5724C266.326 24.5724 265.908 24.6903 265.542 24.9261C265.175 25.1619 264.887 25.5085 264.676 25.9659C264.469 26.4205 264.365 26.9744 264.365 27.6278C264.365 28.2869 264.469 28.8452 264.676 29.3026C264.884 29.7599 265.172 30.108 265.542 30.3466C265.911 30.5824 266.34 30.7003 266.828 30.7003C267.272 30.7003 267.655 30.6151 267.979 30.4446C268.306 30.2741 268.557 30.0327 268.733 29.7202C268.909 29.4048 268.998 29.0355 268.998 28.6122L269.355 28.6676H266.986V27.4318H270.527V28.4801C270.527 29.2273 270.368 29.8736 270.05 30.419C269.732 30.9645 269.294 31.3849 268.738 31.6804C268.181 31.973 267.542 32.1193 266.82 32.1193C266.016 32.1193 265.31 31.9389 264.702 31.5781C264.097 31.2145 263.624 30.6989 263.283 30.0312C262.945 29.3608 262.776 28.5653 262.776 27.6449C262.776 26.9403 262.875 26.3111 263.074 25.7571C263.276 25.2031 263.557 24.733 263.918 24.3466C264.279 23.9574 264.702 23.6619 265.188 23.4602C265.674 23.2557 266.202 23.1534 266.773 23.1534C267.256 23.1534 267.706 23.2244 268.124 23.3665C268.542 23.5057 268.912 23.7045 269.236 23.9631C269.563 24.2216 269.831 24.5284 270.042 24.8835C270.252 25.2386 270.39 25.6307 270.455 26.0597H268.844ZM273.531 23.2727V32H271.988V23.2727H273.531ZM277.972 32.1278C277.333 32.1278 276.779 31.9872 276.31 31.706C275.841 31.4247 275.478 31.0312 275.219 30.5256C274.963 30.0199 274.836 29.429 274.836 28.7528C274.836 28.0767 274.963 27.4844 275.219 26.9759C275.478 26.4673 275.841 26.0724 276.31 25.7912C276.779 25.5099 277.333 25.3693 277.972 25.3693C278.611 25.3693 279.165 25.5099 279.634 25.7912C280.103 26.0724 280.465 26.4673 280.721 26.9759C280.979 27.4844 281.108 28.0767 281.108 28.7528C281.108 29.429 280.979 30.0199 280.721 30.5256C280.465 31.0312 280.103 31.4247 279.634 31.706C279.165 31.9872 278.611 32.1278 277.972 32.1278ZM277.98 30.892C278.327 30.892 278.617 30.7969 278.85 30.6065C279.083 30.4134 279.256 30.1548 279.37 29.831C279.486 29.5071 279.544 29.1463 279.544 28.7486C279.544 28.348 279.486 27.9858 279.37 27.6619C279.256 27.3352 279.083 27.0753 278.85 26.8821C278.617 26.6889 278.327 26.5923 277.98 26.5923C277.625 26.5923 277.33 26.6889 277.094 26.8821C276.861 27.0753 276.686 27.3352 276.57 27.6619C276.456 27.9858 276.4 28.348 276.4 28.7486C276.4 29.1463 276.456 29.5071 276.57 29.831C276.686 30.1548 276.861 30.4134 277.094 30.6065C277.33 30.7969 277.625 30.892 277.98 30.892ZM287.591 27.1847L286.185 27.3381C286.145 27.196 286.075 27.0625 285.976 26.9375C285.879 26.8125 285.749 26.7116 285.584 26.6349C285.419 26.5582 285.217 26.5199 284.979 26.5199C284.658 26.5199 284.388 26.5895 284.169 26.7287C283.953 26.8679 283.847 27.0483 283.849 27.2699C283.847 27.4602 283.916 27.6151 284.058 27.7344C284.203 27.8537 284.442 27.9517 284.774 28.0284L285.891 28.267C286.51 28.4006 286.97 28.6122 287.271 28.902C287.575 29.1918 287.729 29.571 287.732 30.0398C287.729 30.4517 287.608 30.8153 287.369 31.1307C287.134 31.4432 286.805 31.6875 286.385 31.8636C285.964 32.0398 285.482 32.1278 284.936 32.1278C284.135 32.1278 283.49 31.9602 283.001 31.625C282.513 31.2869 282.222 30.8168 282.128 30.2145L283.632 30.0696C283.7 30.3651 283.845 30.5881 284.067 30.7386C284.288 30.8892 284.577 30.9645 284.932 30.9645C285.298 30.9645 285.592 30.8892 285.814 30.7386C286.038 30.5881 286.151 30.402 286.151 30.1804C286.151 29.9929 286.078 29.8381 285.933 29.7159C285.791 29.5937 285.57 29.5 285.268 29.4347L284.152 29.2003C283.524 29.0696 283.06 28.8494 282.759 28.5398C282.457 28.2273 282.308 27.8324 282.311 27.3551C282.308 26.9517 282.418 26.6023 282.639 26.3068C282.864 26.0085 283.175 25.7784 283.572 25.6165C283.973 25.4517 284.435 25.3693 284.957 25.3693C285.724 25.3693 286.328 25.5327 286.768 25.8594C287.212 26.1861 287.486 26.6278 287.591 27.1847ZM294.177 27.1847L292.771 27.3381C292.731 27.196 292.661 27.0625 292.562 26.9375C292.465 26.8125 292.335 26.7116 292.17 26.6349C292.005 26.5582 291.803 26.5199 291.565 26.5199C291.244 26.5199 290.974 26.5895 290.755 26.7287C290.539 26.8679 290.433 27.0483 290.435 27.2699C290.433 27.4602 290.502 27.6151 290.644 27.7344C290.789 27.8537 291.028 27.9517 291.36 28.0284L292.477 28.267C293.096 28.4006 293.556 28.6122 293.857 28.902C294.161 29.1918 294.315 29.571 294.317 30.0398C294.315 30.4517 294.194 30.8153 293.955 31.1307C293.719 31.4432 293.391 31.6875 292.971 31.8636C292.55 32.0398 292.067 32.1278 291.522 32.1278C290.721 32.1278 290.076 31.9602 289.587 31.625C289.099 31.2869 288.808 30.8168 288.714 30.2145L290.218 30.0696C290.286 30.3651 290.431 30.5881 290.653 30.7386C290.874 30.8892 291.163 30.9645 291.518 30.9645C291.884 30.9645 292.178 30.8892 292.4 30.7386C292.624 30.5881 292.737 30.402 292.737 30.1804C292.737 29.9929 292.664 29.8381 292.519 29.7159C292.377 29.5937 292.156 29.5 291.854 29.4347L290.738 29.2003C290.11 29.0696 289.646 28.8494 289.344 28.5398C289.043 28.2273 288.894 27.8324 288.897 27.3551C288.894 26.9517 289.004 26.6023 289.225 26.3068C289.45 26.0085 289.761 25.7784 290.158 25.6165C290.559 25.4517 291.021 25.3693 291.543 25.3693C292.31 25.3693 292.914 25.5327 293.354 25.8594C293.798 26.1861 294.072 26.6278 294.177 27.1847ZM297.473 32.1321C297.058 32.1321 296.685 32.0582 296.352 31.9105C296.023 31.7599 295.761 31.5384 295.568 31.2457C295.378 30.9531 295.283 30.5923 295.283 30.1634C295.283 29.794 295.351 29.4886 295.487 29.2472C295.624 29.0057 295.81 28.8125 296.045 28.6676C296.281 28.5227 296.547 28.4134 296.842 28.3395C297.141 28.2628 297.449 28.2074 297.767 28.1733C298.151 28.1335 298.462 28.098 298.7 28.0668C298.939 28.0327 299.112 27.9815 299.22 27.9134C299.331 27.8423 299.386 27.733 299.386 27.5852V27.5597C299.386 27.2386 299.291 26.9901 299.101 26.8139C298.911 26.6378 298.636 26.5497 298.278 26.5497C297.901 26.5497 297.601 26.6321 297.379 26.7969C297.161 26.9616 297.013 27.1562 296.936 27.3807L295.496 27.1761C295.609 26.7784 295.797 26.446 296.058 26.179C296.32 25.9091 296.639 25.7074 297.017 25.5739C297.395 25.4375 297.813 25.3693 298.27 25.3693C298.585 25.3693 298.899 25.4062 299.212 25.4801C299.524 25.554 299.81 25.6761 300.068 25.8466C300.327 26.0142 300.534 26.2429 300.69 26.5327C300.849 26.8224 300.929 27.1847 300.929 27.6193V32H299.446V31.1009H299.395C299.301 31.2827 299.169 31.4531 298.999 31.6122C298.831 31.7685 298.619 31.8949 298.364 31.9915C298.111 32.0852 297.814 32.1321 297.473 32.1321ZM297.874 30.9986C298.183 30.9986 298.452 30.9375 298.679 30.8153C298.906 30.6903 299.081 30.5256 299.203 30.321C299.328 30.1165 299.391 29.8935 299.391 29.652V28.8807C299.342 28.9205 299.26 28.9574 299.143 28.9915C299.03 29.0256 298.902 29.0554 298.76 29.081C298.618 29.1065 298.477 29.1293 298.338 29.1491C298.199 29.169 298.078 29.1861 297.976 29.2003C297.746 29.2315 297.54 29.2827 297.358 29.3537C297.176 29.4247 297.033 29.5241 296.928 29.652C296.822 29.777 296.77 29.9389 296.77 30.1378C296.77 30.4219 296.874 30.6364 297.081 30.7812C297.288 30.9261 297.553 30.9986 297.874 30.9986ZM302.48 32V25.4545H303.976V26.5455H304.044C304.163 26.1676 304.368 25.8764 304.658 25.6719C304.95 25.4645 305.284 25.3608 305.659 25.3608C305.744 25.3608 305.839 25.3651 305.945 25.3736C306.053 25.3793 306.142 25.3892 306.213 25.4034V26.8224C306.148 26.7997 306.044 26.7798 305.902 26.7628C305.763 26.7429 305.628 26.733 305.497 26.733C305.216 26.733 304.963 26.794 304.739 26.9162C304.517 27.0355 304.342 27.2017 304.214 27.4148C304.087 27.6278 304.023 27.8736 304.023 28.152V32H302.48ZM308.396 34.4545C308.186 34.4545 307.991 34.4375 307.812 34.4034C307.636 34.3722 307.495 34.3352 307.39 34.2926L307.748 33.0909C307.973 33.1563 308.173 33.1875 308.349 33.1847C308.525 33.1818 308.68 33.1264 308.814 33.0185C308.95 32.9134 309.065 32.7372 309.159 32.4901L309.291 32.1364L306.917 25.4545H308.554L310.062 30.3977H310.13L311.643 25.4545H313.284L310.663 32.7926C310.541 33.1392 310.379 33.4361 310.177 33.6832C309.975 33.9332 309.728 34.1236 309.436 34.2543C309.146 34.3878 308.799 34.4545 308.396 34.4545Z" fill="white"/>
</svg>
